<?xml version="1.0" encoding="UTF-8" standalone="no"?><svg xmlns="http://www.w3.org/2000/svg" id="fireball-16x" width="16" height="16" viewBox="0 0 16 16" preserveAspectRatio="xMidYMid meet" rendering="crispEdges"><rect id="3-1" x="2" y="0" width="1" height="1" shape-rendering="crispEdges" style="fill:#ff2200;opacity:255;"></rect><rect id="4-1" x="3" y="0" width="1" height="1" shape-rendering="crispEdges" style="fill:#fe2200;opacity:255;"></rect><rect id="7-1" x="6" y="0" width="1" height="1" shape-rendering="crispEdges" style="fill:#ff2200;opacity:255;"></rect><rect id="8-1" x="7" y="0" width="1" height="1" shape-rendering="crispEdges" style="fill:#ff2200;opacity:255;"></rect><rect id="9-1" x="8" y="0" width="1" height="1" shape-rendering="crispEdges" style="fill:#ff2000;opacity:255;"></rect><rect id="10-1" x="9" y="0" width="1" height="1" shape-rendering="crispEdges" style="fill:#ff2000;opacity:255;"></rect><rect id="3-2" x="2" y="1" width="1" height="1" shape-rendering="crispEdges" style="fill:#ff2200;opacity:255;"></rect><rect id="4-2" x="3" y="1" width="1" height="1" shape-rendering="crispEdges" style="fill:#fd2203;opacity:255;"></rect><rect id="7-2" x="6" y="1" width="1" height="1" shape-rendering="crispEdges" style="fill:#fd2300;opacity:255;"></rect><rect id="8-2" x="7" y="1" width="1" height="1" shape-rendering="crispEdges" style="fill:#ff2200;opacity:255;"></rect><rect id="9-2" x="8" y="1" width="1" height="1" shape-rendering="crispEdges" style="fill:#ff2001;opacity:255;"></rect><rect id="10-2" x="9" y="1" width="1" height="1" shape-rendering="crispEdges" style="fill:#ff2302;opacity:255;"></rect><rect id="5-3" x="4" y="2" width="1" height="1" shape-rendering="crispEdges" style="fill:#ff2000;opacity:255;"></rect><rect id="6-3" x="5" y="2" width="1" height="1" shape-rendering="crispEdges" style="fill:#ff2200;opacity:255;"></rect><rect id="9-3" x="8" y="2" width="1" height="1" shape-rendering="crispEdges" style="fill:#ff2200;opacity:255;"></rect><rect id="10-3" x="9" y="2" width="1" height="1" shape-rendering="crispEdges" style="fill:#ff2200;opacity:255;"></rect><rect id="11-3" x="10" y="2" width="1" height="1" shape-rendering="crispEdges" style="fill:#ff2200;opacity:255;"></rect><rect id="12-3" x="11" y="2" width="1" height="1" shape-rendering="crispEdges" style="fill:#ff2200;opacity:255;"></rect><rect id="5-4" x="4" y="3" width="1" height="1" shape-rendering="crispEdges" style="fill:#ff2200;opacity:255;"></rect><rect id="6-4" x="5" y="3" width="1" height="1" shape-rendering="crispEdges" style="fill:#ff2200;opacity:255;"></rect><rect id="9-4" x="8" y="3" width="1" height="1" shape-rendering="crispEdges" style="fill:#fe2200;opacity:255;"></rect><rect id="10-4" x="9" y="3" width="1" height="1" shape-rendering="crispEdges" style="fill:#ff2000;opacity:255;"></rect><rect id="11-4" x="10" y="3" width="1" height="1" shape-rendering="crispEdges" style="fill:#ff2200;opacity:255;"></rect><rect id="12-4" x="11" y="3" width="1" height="1" shape-rendering="crispEdges" style="fill:#ff2200;opacity:255;"></rect><rect id="9-5" x="8" y="4" width="1" height="1" shape-rendering="crispEdges" style="fill:#ff2200;opacity:255;"></rect><rect id="10-5" x="9" y="4" width="1" height="1" shape-rendering="crispEdges" style="fill:#fd2200;opacity:255;"></rect><rect id="11-5" x="10" y="4" width="1" height="1" shape-rendering="crispEdges" style="fill:#ff7d00;opacity:255;"></rect><rect id="12-5" x="11" y="4" width="1" height="1" shape-rendering="crispEdges" style="fill:#ff7c00;opacity:255;"></rect><rect id="13-5" x="12" y="4" width="1" height="1" shape-rendering="crispEdges" style="fill:#ff2300;opacity:255;"></rect><rect id="14-5" x="13" y="4" width="1" height="1" shape-rendering="crispEdges" style="fill:#ff2200;opacity:255;"></rect><rect id="9-6" x="8" y="5" width="1" height="1" shape-rendering="crispEdges" style="fill:#ff2202;opacity:255;"></rect><rect id="10-6" x="9" y="5" width="1" height="1" shape-rendering="crispEdges" style="fill:#ff2200;opacity:255;"></rect><rect id="11-6" x="10" y="5" width="1" height="1" shape-rendering="crispEdges" style="fill:#ff7c00;opacity:255;"></rect><rect id="12-6" x="11" y="5" width="1" height="1" shape-rendering="crispEdges" style="fill:#fe7c00;opacity:255;"></rect><rect id="13-6" x="12" y="5" width="1" height="1" shape-rendering="crispEdges" style="fill:#ff2200;opacity:255;"></rect><rect id="14-6" x="13" y="5" width="1" height="1" shape-rendering="crispEdges" style="fill:#ff2200;opacity:255;"></rect><rect id="1-7" x="0" y="6" width="1" height="1" shape-rendering="crispEdges" style="fill:#ff2200;opacity:255;"></rect><rect id="2-7" x="1" y="6" width="1" height="1" shape-rendering="crispEdges" style="fill:#ff2200;opacity:255;"></rect><rect id="5-7" x="4" y="6" width="1" height="1" shape-rendering="crispEdges" style="fill:#fe2300;opacity:255;"></rect><rect id="6-7" x="5" y="6" width="1" height="1" shape-rendering="crispEdges" style="fill:#ff2200;opacity:255;"></rect><rect id="7-7" x="6" y="6" width="1" height="1" shape-rendering="crispEdges" style="fill:#ff2200;opacity:255;"></rect><rect id="8-7" x="7" y="6" width="1" height="1" shape-rendering="crispEdges" style="fill:#ff2202;opacity:255;"></rect><rect id="9-7" x="8" y="6" width="1" height="1" shape-rendering="crispEdges" style="fill:#ff7d00;opacity:255;"></rect><rect id="10-7" x="9" y="6" width="1" height="1" shape-rendering="crispEdges" style="fill:#ff7c00;opacity:255;"></rect><rect id="11-7" x="10" y="6" width="1" height="1" shape-rendering="crispEdges" style="fill:#fffefc;opacity:255;"></rect><rect id="12-7" x="11" y="6" width="1" height="1" shape-rendering="crispEdges" style="fill:#ffffff;opacity:255;"></rect><rect id="13-7" x="12" y="6" width="1" height="1" shape-rendering="crispEdges" style="fill:#ff7c00;opacity:255;"></rect><rect id="14-7" x="13" y="6" width="1" height="1" shape-rendering="crispEdges" style="fill:#fc7c00;opacity:255;"></rect><rect id="15-7" x="14" y="6" width="1" height="1" shape-rendering="crispEdges" style="fill:#ff2201;opacity:255;"></rect><rect id="16-7" x="15" y="6" width="1" height="1" shape-rendering="crispEdges" style="fill:#ff2200;opacity:255;"></rect><rect id="1-8" x="0" y="7" width="1" height="1" shape-rendering="crispEdges" style="fill:#ff2200;opacity:255;"></rect><rect id="2-8" x="1" y="7" width="1" height="1" shape-rendering="crispEdges" style="fill:#ff2200;opacity:255;"></rect><rect id="5-8" x="4" y="7" width="1" height="1" shape-rendering="crispEdges" style="fill:#ff2202;opacity:255;"></rect><rect id="6-8" x="5" y="7" width="1" height="1" shape-rendering="crispEdges" style="fill:#fd2200;opacity:255;"></rect><rect id="7-8" x="6" y="7" width="1" height="1" shape-rendering="crispEdges" style="fill:#ff2300;opacity:255;"></rect><rect id="8-8" x="7" y="7" width="1" height="1" shape-rendering="crispEdges" style="fill:#ff2200;opacity:255;"></rect><rect id="9-8" x="8" y="7" width="1" height="1" shape-rendering="crispEdges" style="fill:#fe7c03;opacity:255;"></rect><rect id="10-8" x="9" y="7" width="1" height="1" shape-rendering="crispEdges" style="fill:#ff7c00;opacity:255;"></rect><rect id="11-8" x="10" y="7" width="1" height="1" shape-rendering="crispEdges" style="fill:#fdffff;opacity:255;"></rect><rect id="12-8" x="11" y="7" width="1" height="1" shape-rendering="crispEdges" style="fill:#ffffff;opacity:255;"></rect><rect id="13-8" x="12" y="7" width="1" height="1" shape-rendering="crispEdges" style="fill:#ff7c00;opacity:255;"></rect><rect id="14-8" x="13" y="7" width="1" height="1" shape-rendering="crispEdges" style="fill:#ff7e00;opacity:255;"></rect><rect id="15-8" x="14" y="7" width="1" height="1" shape-rendering="crispEdges" style="fill:#fe2200;opacity:255;"></rect><rect id="16-8" x="15" y="7" width="1" height="1" shape-rendering="crispEdges" style="fill:#ff2200;opacity:255;"></rect><rect id="5-9" x="4" y="8" width="1" height="1" shape-rendering="crispEdges" style="fill:#ff2201;opacity:255;"></rect><rect id="6-9" x="5" y="8" width="1" height="1" shape-rendering="crispEdges" style="fill:#ff2000;opacity:255;"></rect><rect id="7-9" x="6" y="8" width="1" height="1" shape-rendering="crispEdges" style="fill:#ff7c00;opacity:255;"></rect><rect id="8-9" x="7" y="8" width="1" height="1" shape-rendering="crispEdges" style="fill:#ff7e00;opacity:255;"></rect><rect id="9-9" x="8" y="8" width="1" height="1" shape-rendering="crispEdges" style="fill:#fdffff;opacity:255;"></rect><rect id="10-9" x="9" y="8" width="1" height="1" shape-rendering="crispEdges" style="fill:#ffffff;opacity:255;"></rect><rect id="11-9" x="10" y="8" width="1" height="1" shape-rendering="crispEdges" style="fill:#ff7c00;opacity:255;"></rect><rect id="12-9" x="11" y="8" width="1" height="1" shape-rendering="crispEdges" style="fill:#ff7c00;opacity:255;"></rect><rect id="13-9" x="12" y="8" width="1" height="1" shape-rendering="crispEdges" style="fill:#ff7c00;opacity:255;"></rect><rect id="14-9" x="13" y="8" width="1" height="1" shape-rendering="crispEdges" style="fill:#ff7e00;opacity:255;"></rect><rect id="15-9" x="14" y="8" width="1" height="1" shape-rendering="crispEdges" style="fill:#ff2200;opacity:255;"></rect><rect id="16-9" x="15" y="8" width="1" height="1" shape-rendering="crispEdges" style="fill:#fe2200;opacity:255;"></rect><rect id="5-10" x="4" y="9" width="1" height="1" shape-rendering="crispEdges" style="fill:#ff2200;opacity:255;"></rect><rect id="6-10" x="5" y="9" width="1" height="1" shape-rendering="crispEdges" style="fill:#ff2300;opacity:255;"></rect><rect id="7-10" x="6" y="9" width="1" height="1" shape-rendering="crispEdges" style="fill:#ff7c00;opacity:255;"></rect><rect id="8-10" x="7" y="9" width="1" height="1" shape-rendering="crispEdges" style="fill:#ff7c00;opacity:255;"></rect><rect id="9-10" x="8" y="9" width="1" height="1" shape-rendering="crispEdges" style="fill:#ffffff;opacity:255;"></rect><rect id="10-10" x="9" y="9" width="1" height="1" shape-rendering="crispEdges" style="fill:#fdffff;opacity:255;"></rect><rect id="11-10" x="10" y="9" width="1" height="1" shape-rendering="crispEdges" style="fill:#fe7c00;opacity:255;"></rect><rect id="12-10" x="11" y="9" width="1" height="1" shape-rendering="crispEdges" style="fill:#ff7c00;opacity:255;"></rect><rect id="13-10" x="12" y="9" width="1" height="1" shape-rendering="crispEdges" style="fill:#ff7c00;opacity:255;"></rect><rect id="14-10" x="13" y="9" width="1" height="1" shape-rendering="crispEdges" style="fill:#ff7c00;opacity:255;"></rect><rect id="15-10" x="14" y="9" width="1" height="1" shape-rendering="crispEdges" style="fill:#ff2200;opacity:255;"></rect><rect id="16-10" x="15" y="9" width="1" height="1" shape-rendering="crispEdges" style="fill:#fd2200;opacity:255;"></rect><rect id="3-11" x="2" y="10" width="1" height="1" shape-rendering="crispEdges" style="fill:#ff2200;opacity:255;"></rect><rect id="4-11" x="3" y="10" width="1" height="1" shape-rendering="crispEdges" style="fill:#ff2202;opacity:255;"></rect><rect id="5-11" x="4" y="10" width="1" height="1" shape-rendering="crispEdges" style="fill:#ff7c00;opacity:255;"></rect><rect id="6-11" x="5" y="10" width="1" height="1" shape-rendering="crispEdges" style="fill:#ff7c00;opacity:255;"></rect><rect id="7-11" x="6" y="10" width="1" height="1" shape-rendering="crispEdges" style="fill:#ff7c02;opacity:255;"></rect><rect id="8-11" x="7" y="10" width="1" height="1" shape-rendering="crispEdges" style="fill:#fd7c00;opacity:255;"></rect><rect id="9-11" x="8" y="10" width="1" height="1" shape-rendering="crispEdges" style="fill:#fd7c00;opacity:255;"></rect><rect id="10-11" x="9" y="10" width="1" height="1" shape-rendering="crispEdges" style="fill:#fe7c00;opacity:255;"></rect><rect id="11-11" x="10" y="10" width="1" height="1" shape-rendering="crispEdges" style="fill:#ff7c00;opacity:255;"></rect><rect id="12-11" x="11" y="10" width="1" height="1" shape-rendering="crispEdges" style="fill:#ff7d01;opacity:255;"></rect><rect id="13-11" x="12" y="10" width="1" height="1" shape-rendering="crispEdges" style="fill:#ff2000;opacity:255;"></rect><rect id="14-11" x="13" y="10" width="1" height="1" shape-rendering="crispEdges" style="fill:#fe2200;opacity:255;"></rect><rect id="3-12" x="2" y="11" width="1" height="1" shape-rendering="crispEdges" style="fill:#ff2200;opacity:255;"></rect><rect id="4-12" x="3" y="11" width="1" height="1" shape-rendering="crispEdges" style="fill:#fd2200;opacity:255;"></rect><rect id="5-12" x="4" y="11" width="1" height="1" shape-rendering="crispEdges" style="fill:#ff7c01;opacity:255;"></rect><rect id="6-12" x="5" y="11" width="1" height="1" shape-rendering="crispEdges" style="fill:#ff7c00;opacity:255;"></rect><rect id="7-12" x="6" y="11" width="1" height="1" shape-rendering="crispEdges" style="fill:#ff7c02;opacity:255;"></rect><rect id="8-12" x="7" y="11" width="1" height="1" shape-rendering="crispEdges" style="fill:#ff7c00;opacity:255;"></rect><rect id="9-12" x="8" y="11" width="1" height="1" shape-rendering="crispEdges" style="fill:#ff7e00;opacity:255;"></rect><rect id="10-12" x="9" y="11" width="1" height="1" shape-rendering="crispEdges" style="fill:#ff7c00;opacity:255;"></rect><rect id="11-12" x="10" y="11" width="1" height="1" shape-rendering="crispEdges" style="fill:#ff7e00;opacity:255;"></rect><rect id="12-12" x="11" y="11" width="1" height="1" shape-rendering="crispEdges" style="fill:#ff7c00;opacity:255;"></rect><rect id="13-12" x="12" y="11" width="1" height="1" shape-rendering="crispEdges" style="fill:#ff2200;opacity:255;"></rect><rect id="14-12" x="13" y="11" width="1" height="1" shape-rendering="crispEdges" style="fill:#ff2200;opacity:255;"></rect><rect id="3-13" x="2" y="12" width="1" height="1" shape-rendering="crispEdges" style="fill:#fd2200;opacity:255;"></rect><rect id="4-13" x="3" y="12" width="1" height="1" shape-rendering="crispEdges" style="fill:#ff2200;opacity:255;"></rect><rect id="5-13" x="4" y="12" width="1" height="1" shape-rendering="crispEdges" style="fill:#ff2200;opacity:255;"></rect><rect id="6-13" x="5" y="12" width="1" height="1" shape-rendering="crispEdges" style="fill:#ff2200;opacity:255;"></rect><rect id="7-13" x="6" y="12" width="1" height="1" shape-rendering="crispEdges" style="fill:#ff7e01;opacity:255;"></rect><rect id="8-13" x="7" y="12" width="1" height="1" shape-rendering="crispEdges" style="fill:#ff7c00;opacity:255;"></rect><rect id="9-13" x="8" y="12" width="1" height="1" shape-rendering="crispEdges" style="fill:#ff7d00;opacity:255;"></rect><rect id="10-13" x="9" y="12" width="1" height="1" shape-rendering="crispEdges" style="fill:#ff7d00;opacity:255;"></rect><rect id="11-13" x="10" y="12" width="1" height="1" shape-rendering="crispEdges" style="fill:#ff2300;opacity:255;"></rect><rect id="12-13" x="11" y="12" width="1" height="1" shape-rendering="crispEdges" style="fill:#ff2200;opacity:255;"></rect><rect id="3-14" x="2" y="13" width="1" height="1" shape-rendering="crispEdges" style="fill:#ff2200;opacity:255;"></rect><rect id="4-14" x="3" y="13" width="1" height="1" shape-rendering="crispEdges" style="fill:#ff2000;opacity:255;"></rect><rect id="5-14" x="4" y="13" width="1" height="1" shape-rendering="crispEdges" style="fill:#ff2200;opacity:255;"></rect><rect id="6-14" x="5" y="13" width="1" height="1" shape-rendering="crispEdges" style="fill:#ff2300;opacity:255;"></rect><rect id="7-14" x="6" y="13" width="1" height="1" shape-rendering="crispEdges" style="fill:#ff7c02;opacity:255;"></rect><rect id="8-14" x="7" y="13" width="1" height="1" shape-rendering="crispEdges" style="fill:#ff7c00;opacity:255;"></rect><rect id="9-14" x="8" y="13" width="1" height="1" shape-rendering="crispEdges" style="fill:#ff7c02;opacity:255;"></rect><rect id="10-14" x="9" y="13" width="1" height="1" shape-rendering="crispEdges" style="fill:#ff7c00;opacity:255;"></rect><rect id="11-14" x="10" y="13" width="1" height="1" shape-rendering="crispEdges" style="fill:#ff2200;opacity:255;"></rect><rect id="12-14" x="11" y="13" width="1" height="1" shape-rendering="crispEdges" style="fill:#ff2200;opacity:255;"></rect><rect id="7-15" x="6" y="14" width="1" height="1" shape-rendering="crispEdges" style="fill:#ff2203;opacity:255;"></rect><rect id="8-15" x="7" y="14" width="1" height="1" shape-rendering="crispEdges" style="fill:#ff2200;opacity:255;"></rect><rect id="9-15" x="8" y="14" width="1" height="1" shape-rendering="crispEdges" style="fill:#ff2200;opacity:255;"></rect><rect id="10-15" x="9" y="14" width="1" height="1" shape-rendering="crispEdges" style="fill:#fd2200;opacity:255;"></rect><rect id="7-16" x="6" y="15" width="1" height="1" shape-rendering="crispEdges" style="fill:#ff2100;opacity:255;"></rect><rect id="8-16" x="7" y="15" width="1" height="1" shape-rendering="crispEdges" style="fill:#ff2200;opacity:255;"></rect><rect id="9-16" x="8" y="15" width="1" height="1" shape-rendering="crispEdges" style="fill:#ff2200;opacity:255;"></rect><rect id="10-16" x="9" y="15" width="1" height="1" shape-rendering="crispEdges" style="fill:#fe2200;opacity:255;"></rect></svg>